<svg width="8" height="8" viewBox="0 0 8 8" fill="none" xmlns="http://www.w3.org/2000/svg">
<path fill-rule="evenodd" clip-rule="evenodd" d="M4 0C4.31559 0 4.57143 0.255837 4.57143 0.571429L4.57143 7.42857C4.57143 7.74416 4.31559 8 4 8C3.68441 8 3.42857 7.74416 3.42857 7.42857L3.42857 0.571429C3.42857 0.255837 3.68441 0 4 0Z" fill="#F6F7FB"/>
<path fill-rule="evenodd" clip-rule="evenodd" d="M0 4C0 3.68441 0.255837 3.42857 0.571429 3.42857L7.42857 3.42857C7.74416 3.42857 8 3.68441 8 4C8 4.31559 7.74416 4.57143 7.42857 4.57143L0.571429 4.57143C0.255837 4.57143 0 4.31559 0 4Z" fill="#F6F7FB"/>
</svg>
