<svg width="17" height="17" viewBox="0 0 17 17" fill="none" xmlns="http://www.w3.org/2000/svg">
<path fill-rule="evenodd" clip-rule="evenodd" d="M0 5.83333C0 2.61167 2.61167 0 5.83333 0H12.5C12.9602 0 13.3333 0.373096 13.3333 0.833333C13.3333 1.29357 12.9602 1.66667 12.5 1.66667H5.83333C3.53215 1.66667 1.66667 3.53215 1.66667 5.83333V12.5C1.66667 12.9602 1.29357 13.3333 0.833333 13.3333C0.373096 13.3333 0 12.9602 0 12.5V5.83333Z" fill="#38ABBE"/>
<path d="M3.33333 6.66667C3.33333 4.82572 4.82572 3.33333 6.66667 3.33333H13.3333C15.1743 3.33333 16.6667 4.82572 16.6667 6.66667V13.3333C16.6667 15.1743 15.1743 16.6667 13.3333 16.6667H6.66667C4.82572 16.6667 3.33333 15.1743 3.33333 13.3333V6.66667Z" fill="#38ABBE"/>
</svg>
